<?xml version="1.0" encoding="UTF-8" standalone="no"?>
<!-- Created with Inkscape (http://www.inkscape.org/) -->

<svg
   width="79mm"
   height="38mm"
   viewBox="0 0 78.999995 38"
   version="1.1"
   id="svg1"
   xml:space="preserve"
   inkscape:version="1.3 (0e150ed6c4, 2023-07-21)"
   sodipodi:docname="Jiaxing_wordmark.svg"
   xmlns:inkscape="http://www.inkscape.org/namespaces/inkscape"
   xmlns:sodipodi="http://sodipodi.sourceforge.net/DTD/sodipodi-0.dtd"
   xmlns="http://www.w3.org/2000/svg"
   xmlns:svg="http://www.w3.org/2000/svg"><sodipodi:namedview
     id="namedview1"
     pagecolor="#ffffff"
     bordercolor="#000000"
     borderopacity="0.25"
     inkscape:showpageshadow="2"
     inkscape:pageopacity="0.0"
     inkscape:pagecheckerboard="0"
     inkscape:deskcolor="#d1d1d1"
     inkscape:document-units="mm"
     inkscape:zoom="2.0838024"
     inkscape:cx="162.44342"
     inkscape:cy="153.08553"
     inkscape:window-width="1412"
     inkscape:window-height="949"
     inkscape:window-x="42"
     inkscape:window-y="44"
     inkscape:window-maximized="0"
     inkscape:current-layer="layer1" /><defs
     id="defs1"><filter
       style="color-interpolation-filters:sRGB"
       inkscape:label="Drop Shadow"
       id="filter36"
       x="-0.0019176567"
       y="-0.0054003615"
       width="1.0065579"
       height="1.0184681"><feFlood
         result="flood"
         in="SourceGraphic"
         flood-opacity="0.498039"
         flood-color="rgb(0,0,0)"
         id="feFlood35" /><feGaussianBlur
         result="blur"
         in="SourceGraphic"
         stdDeviation="0.058693851"
         id="feGaussianBlur35" /><feOffset
         result="offset"
         in="blur"
         dx="0.200000"
         dy="0.200000"
         id="feOffset35" /><feComposite
         result="comp1"
         operator="in"
         in="flood"
         in2="offset"
         id="feComposite35" /><feComposite
         result="comp2"
         operator="over"
         in="SourceGraphic"
         in2="comp1"
         id="feComposite36" /></filter></defs><g
     inkscape:label="图层 1"
     inkscape:groupmode="layer"
     id="layer1"><g
       id="text1"
       style="font-size:14.1111px;line-height:0.8;font-family:'Times New Roman';-inkscape-font-specification:'Times New Roman, ';stroke-width:0.264583"
       aria-label="佳兴广播站&#10;Jiaxing Encyclopedia"
       transform="translate(-33.758163,2.873035)"><path
         style="font-weight:bold;font-size:14.8167px;font-family:'Kozuka Mincho Pr6N';-inkscape-font-specification:'Kozuka Mincho Pr6N, Bold'"
         d="m 35.03327,12.374805 c 0.622301,-0.548218 1.214969,-1.200153 1.763187,-1.926171 v 7.749134 h 0.296334 c 0.622302,0 1.274236,-0.355601 1.289053,-0.474134 V 8.6706299 c 0.281517,-0.04445 0.414868,-0.148167 0.459318,-0.2815173 L 38.248494,8.1668621 c 0.488951,-0.9038187 0.933452,-1.8817209 1.318686,-2.9188899 0.400051,0.014817 0.533401,-0.0889 0.592668,-0.2815173 L 37.922526,4.2848867 c -0.681568,2.9929734 -1.926171,6.1637473 -3.081873,7.9565683 z m 4.859877,-5.1710284 h 2.904074 v 3.0077904 h -3.644909 l 0.07408,0.296334 h 8.80112 c 0.414867,0 0.607484,-0.07408 0.726018,-0.266701 L 47.123697,9.011414 46.249512,10.211567 H 44.397424 V 7.2037766 h 2.978157 c 0.400051,0 0.592668,-0.074084 0.726018,-0.2667006 L 46.486579,5.7221066 45.62721,6.9074426 H 44.397424 V 4.862738 C 44.782658,4.803471 44.930825,4.6997543 44.945642,4.5071372 L 42.797221,4.3145201 v 2.5929225 h -2.978157 z m 6.474898,9.9271894 h -1.970621 v -3.393025 h 3.215224 c 0.414868,0 0.607485,-0.05927 0.726018,-0.251884 l -1.629837,-1.244602 -0.889002,1.214969 h -1.422403 v -2.163238 c 0.385234,-0.07408 0.533401,-0.162984 0.548218,-0.355601 l -2.148421,-0.207434 v 2.726273 H 39.56718 l 0.07408,0.281517 h 3.155957 v 3.393025 h -3.867159 l 0.07408,0.296334 h 9.230805 c 0.414867,0 0.607484,-0.05927 0.726018,-0.251884 l -1.674287,-1.289053 z m 3.541192,-4.430194 h 13.112779 c 0.414868,0 0.592668,-0.07408 0.726018,-0.251884 l -1.733553,-1.259419 -0.933453,1.214969 H 49.835153 Z m 0.237067,5.526629 c 2.192871,-0.859368 4.119042,-2.370672 5.245112,-3.689358 0.0889,0.01482 0.162983,0.02963 0.22225,0.02963 0.192617,0 0.296334,-0.07408 0.355601,-0.177801 L 54.087546,13.33789 c -0.740835,1.496487 -2.326222,3.452292 -4.059776,4.682078 z M 54.265346,4.4330537 c 0.948269,1.4668533 1.674288,3.8227086 1.644654,5.6155293 0.266701,0.281517 0.548218,0.400051 0.800102,0.400051 0.563035,0 1.022352,-0.6074848 1.022352,-1.5261202 0,-1.2297861 -0.814918,-2.9929734 -3.289307,-4.5635436 z m 6.919399,0.1926171 c -0.755651,2.4743889 -1.896537,5.3043786 -2.770723,6.9638492 0.02963,0.01482 0.07408,0.02963 0.192618,0.118533 1.555753,-1.496486 3.05224,-3.6597245 4.237576,-5.9711297 0.400051,0.014817 0.548218,-0.0889 0.622301,-0.2518839 z M 50.220387,5.4257726 c 0.992719,1.3483197 1.852088,3.5411913 1.955805,5.1710284 0.251884,0.251884 0.518584,0.370417 0.755651,0.370417 0.518585,0 0.933453,-0.518584 0.933453,-1.3186859 0,-1.1260692 -0.859369,-2.815173 -3.481925,-4.296843 z m 7.852851,8.4455194 c 1.52612,0.948268 3.230041,2.681822 3.956059,4.133859 0.207434,0.118534 0.400051,0.1778 0.563035,0.1778 0.459318,0 0.785285,-0.370417 0.785285,-0.903818 0,-1.022353 -1.244603,-2.69664 -5.215478,-3.556008 z m 17.78004,-7.1268331 h -3.05224 V 4.8923714 C 73.260356,4.8182879 73.408523,4.714571 73.423339,4.5071372 L 71.215651,4.2848867 V 6.7444589 H 67.867077 L 66.029806,6.0628907 v 4.4301933 c 0,2.563289 -0.0889,5.378462 -1.422403,7.615784 l 0.1778,0.118533 c 2.667006,-2.103971 2.82999,-5.289561 2.82999,-7.749134 V 7.0259762 h 9.971639 c 0.429684,0 0.622302,-0.059267 0.726018,-0.2518839 L 76.727464,5.5591229 Z M 92.077565,7.6334609 91.29228,8.6261798 H 89.351292 V 5.9147237 c 0.859369,-0.074083 1.65947,-0.1778004 2.311405,-0.2667006 0.237067,0.1037169 0.444501,0.148167 0.607485,0.148167 0.13335,0 0.251884,-0.029633 0.325967,-0.1037169 L 91.084846,4.1663531 c -1.48167,0.592668 -4.370927,1.3631364 -6.652698,1.7335539 l 0.05927,0.2370672 c 1.081619,0 2.266955,-0.029633 3.393025,-0.1037169 V 8.6261798 H 84.19508 l 0.07408,0.296334 h 2.355855 c -0.637118,1.3483202 -1.689104,2.6966392 -2.948523,3.6300912 l 0.13335,0.222251 c 0.444501,-0.192617 0.859369,-0.400051 1.274236,-0.637118 v 6.074847 c 1.274237,0 1.496487,-0.518585 1.496487,-0.533401 v -0.340785 h 4.074593 v 0.770469 c 1.096435,0 1.52612,-0.385234 1.52612,-0.400051 V 13.33789 c 0.237067,-0.05927 0.414867,-0.162983 0.503767,-0.251883 l -1.585386,-1.096436 -0.577852,0.740835 h -3.852342 l -1.52612,-0.622302 c 1.081619,-0.622301 2.029888,-1.348319 2.74109,-2.2225047 v 2.4151217 h 0.251884 c 0.755651,0 1.214969,-0.31115 1.214969,-0.414867 V 9.0558641 c 0.651935,1.5261199 1.70392,2.6670059 3.037423,3.3782079 0.177801,-0.785285 0.563035,-1.25942 1.140886,-1.422403 l 0.01482,-0.162984 C 92.136832,10.552351 90.536628,9.8559659 89.647626,8.9225138 h 3.215224 c 0.385234,0 0.577851,-0.059267 0.681568,-0.2518839 z m -4.17831,7.2453661 H 86.580569 V 13.02674 h 1.318686 z m 2.755907,0 h -1.30387 V 13.02674 h 1.30387 z m -4.074593,0.296334 h 1.318686 v 1.881721 h -1.318686 z m 2.770723,0 h 1.30387 v 1.881721 h -1.30387 z M 82.787494,7.9149782 h 1.52612 c 0.385234,0 0.577851,-0.074084 0.696385,-0.2667006 L 83.691313,6.5073917 82.980111,7.6186442 H 82.787494 V 4.862738 C 83.306078,4.788654 83.380162,4.6849376 83.409795,4.4626871 L 81.291007,4.2848867 v 3.3337575 h -1.911354 l 0.0889,0.296334 h 1.822454 v 3.3782078 c -0.844552,0.1778 -1.540937,0.296334 -1.955804,0.355601 l 0.651935,1.926171 c 0.162983,-0.05927 0.31115,-0.192617 0.385234,-0.385235 l 0.918635,-0.459317 v 3.511558 c 0,0.1778 -0.05927,0.251884 -0.237067,0.251884 h -1.57057 v 0.207433 c 1.111252,0.148167 1.377953,0.488951 1.377953,1.496487 1.689104,-0.162984 1.926171,-0.918635 1.926171,-1.955804 v -4.282027 c 0.933452,-0.503767 1.65947,-0.933452 2.222505,-1.274236 l -0.02963,-0.162984 c -0.740835,0.162984 -1.48167,0.325968 -2.192871,0.474135 z m 7.823217,-1.926171 c -0.2667,0.8741853 -0.577851,1.8224541 -0.829735,2.3854887 l 0.222251,0.1333503 c 0.592668,-0.3704175 1.318686,-0.9630855 1.896537,-1.5261201 0.370418,0.014817 0.518585,-0.074083 0.577852,-0.2370672 z m -5.408095,0.3111507 c 0.370417,0.444501 0.637118,1.2297861 0.637118,1.8224541 0.1778,0.2222505 0.400051,0.3259674 0.622301,0.3259674 0.414868,0 0.785286,-0.3556008 0.785286,-0.8001018 0,-0.5037678 -0.474135,-1.0964358 -1.911355,-1.4372199 z m 21.439764,0.4741344 -0.85937,1.2001527 h -1.09643 V 4.9071881 c 0.4445,-0.059267 0.59266,-0.1629837 0.6223,-0.3852342 l -2.26696,-0.2074338 v 7.5565169 h -0.60748 l -1.74837,-0.666751 v 2.370672 l -2.652192,0.518584 c 0.681568,-1.52612 1.363137,-3.348574 1.778004,-4.6228103 0.385238,-0.014817 0.533398,-0.1037169 0.577848,-0.296334 L 98.241312,8.7743468 c -0.148167,1.5409372 -0.400051,3.7189922 -0.651935,5.4080952 -1.452036,0.266701 -2.667006,0.488951 -3.333757,0.577852 l 0.770468,1.79282 c 0.162984,-0.04445 0.311151,-0.1778 0.385234,-0.3556 2.385489,-0.992719 4.089409,-1.778004 5.274748,-2.370672 v 4.385743 h 0.28151 c 0.81492,0 1.30387,-0.355601 1.30387,-0.474135 v -0.844552 h 3.46711 v 1.200153 h 0.28152 c 0.82973,0 1.37795,-0.325967 1.37795,-0.400051 v -5.215478 c 0.31115,-0.05927 0.47414,-0.148167 0.56304,-0.266701 l -1.67429,-1.229786 -0.68157,0.889002 h -0.91863 V 8.270579 h 2.82999 c 0.38523,0 0.59266,-0.074084 0.7112,-0.2667006 z m -0.90382,9.8234717 h -3.46711 v -4.430193 h 3.46711 z m -5.71924,-8.4899687 c 0.41486,0 0.60748,-0.059267 0.72601,-0.2518839 L 99.278481,6.5814752 98.478379,7.8112613 H 98.019061 V 5.1294386 c 0.444501,-0.059267 0.577852,-0.1629837 0.607485,-0.3704175 L 96.478125,4.566404 V 7.8112613 H 94.30007 l 0.0889,0.296334 z m -5.126582,0.8297352 c 0.281517,0.8741853 0.370417,1.9558045 0.370417,2.9040735 0,0.548218 -0.02963,1.051985 -0.07408,1.43722 0.148167,0.31115 0.370417,0.444501 0.592668,0.444501 0.474134,0 0.977902,-0.607485 0.977902,-1.570571 0,-0.889002 -0.429684,-2.044704 -1.65947,-3.3041237 z"
         id="path1" /><path
         style="font-size:8.46667px;font-family:'Chaparral Pro';-inkscape-font-specification:'Chaparral Pro, Normal'"
         d="m 38.470737,21.600642 c 0.0085,-0.118533 0.0085,-0.254 0.0085,-0.372533 -0.270934,0 -0.618067,0 -0.931334,0 -0.440267,0 -1.007534,0 -1.439334,0 0,0.110066 -0.0085,0.254 -0.0085,0.372533 l 1.066801,0.03387 c 0,0.9906 0.0085,2.032 0.0085,2.997201 0,0.6096 0,1.016 -0.2286,1.363134 -0.169333,0.270933 -0.508,0.474133 -0.9398,0.474133 -0.143933,0 -0.397933,-0.0254 -0.5588,-0.1016 -0.03387,-0.0254 -0.05927,-0.05927 -0.06773,-0.110066 l -0.160866,-0.838201 c -0.143934,0.01693 -0.3048,0.04233 -0.448734,0.0762 0.04233,0.423334 0.08467,0.863601 0.135467,1.303867 0.3302,0.0762 0.6858,0.1016 0.956734,0.1016 0.795867,0 1.286933,-0.3048 1.566334,-0.668866 0.313266,-0.431801 0.414866,-0.855134 0.414866,-1.625601 0.0085,-0.982134 0,-1.972734 0.0085,-2.946401 0,-0.01693 0,-0.03387 0.01693,-0.03387 z m 1.405467,-0.211667 c -0.3048,0 -0.474133,0.211667 -0.474133,0.448734 0,0.237067 0.186267,0.440267 0.448733,0.440267 0.262467,0 0.448734,-0.186267 0.448734,-0.448734 0.0085,-0.186267 -0.1016,-0.440267 -0.423334,-0.440267 z m -0.2794,2.294468 v 2.616201 c 0,0.0254 -0.01693,0.04233 -0.03387,0.04233 l -0.567267,0.0254 c -0.0085,0.118534 -0.0085,0.245534 -0.0085,0.372534 0.287867,0 0.601134,-0.0085 0.889,-0.0085 0.313267,0 0.668867,0 0.939801,0 0.0085,-0.118533 0.0085,-0.245533 0.0085,-0.372533 l -0.592667,-0.01693 c 0,-0.905933 0.01693,-2.286001 0.01693,-3.225801 0,-0.01693 0,-0.0254 -0.01693,-0.0254 -0.06773,0 -0.931333,0.169333 -1.286933,0.211667 0,0.110066 -0.0085,0.245533 -0.0085,0.3556 z m 3.920079,2.751668 c 0.110067,0.169333 0.194734,0.3048 0.2794,0.381 0.381001,0 0.863601,-0.0762 0.973668,-0.110067 0.0085,-0.118533 0.0085,-0.254 0,-0.3556 l -0.567267,0.01693 c -0.0508,0 -0.0762,-0.04233 -0.0762,-0.127 0.0085,-0.3556 0.01693,-1.380067 0.01693,-1.778001 0,-0.9398 -0.508,-1.3716 -1.134534,-1.3716 -0.668867,0 -1.143,0.389467 -1.507067,0.745067 0.09313,0.110067 0.2032,0.2286 0.296333,0.321733 0.287867,-0.313266 0.660401,-0.5588 1.016001,-0.5588 0.516467,0 0.728133,0.3556 0.702733,1.253067 -0.08467,0 -0.287866,0 -0.5842,-0.0085 -1.126067,0 -1.651001,0.668867 -1.651001,1.143 0,0.4826 0.541867,0.829734 0.965201,0.829734 0.296333,0 0.6096,-0.05927 1.227667,-0.381 z m -1.540934,-0.524934 c 0,-0.381 0.304801,-0.694267 1.058334,-0.694267 0.245534,0 0.423334,0.0085 0.465667,0.01693 0,0.228601 0,0.558801 0,0.719667 0,0.04233 0,0.05927 -0.0254,0.06773 -0.321733,0.2286 -0.694267,0.347133 -0.9398,0.347133 -0.330201,0 -0.558801,-0.186267 -0.558801,-0.4572 z m 2.912534,0.4572 c -0.0085,0.118534 -0.0085,0.245534 -0.0085,0.372534 0.2032,-0.0085 0.448734,-0.0085 0.660401,-0.0085 0.2794,0 0.5842,0 0.829733,0 0.0085,-0.118533 0.0085,-0.254 0.0085,-0.372533 l -0.474134,-0.01693 c 0.237067,-0.3048 0.584201,-0.753533 0.880534,-1.100667 h 0.04233 c 0.270934,0.338667 0.567267,0.719667 0.787401,1.058334 0.01693,0.01693 0,0.04233 -0.03387,0.04233 l -0.440267,0.01693 c -0.0085,0.118533 -0.0085,0.254 -0.0085,0.372533 0.296333,0 0.618067,0 0.9398,0 0.2794,0 0.541867,0 0.770467,0 0,-0.118533 0.0085,-0.254 0.0085,-0.372533 l -0.448734,-0.01693 c -0.3048,-0.381 -0.7366,-0.948267 -1.1176,-1.439334 v -0.0508 c 0.508,-0.575733 0.897467,-1.0414 1.109133,-1.278467 l 0.381001,-0.0254 c 0.0085,-0.118533 0.01693,-0.254 0.01693,-0.372533 -0.186267,0.0085 -0.414867,0.0085 -0.635,0.0085 -0.2794,0 -0.567267,0 -0.812801,0 -0.0085,0.118534 -0.0085,0.254 -0.0085,0.372534 l 0.423333,0.01693 c 0.01693,0 0.0254,0.01693 0.0085,0.03387 -0.160867,0.245533 -0.4064,0.5588 -0.719667,0.9652 h -0.0508 c -0.2794,-0.372533 -0.5588,-0.770467 -0.719667,-0.999067 l 0.499533,-0.01693 c 0.0085,-0.127 0.0085,-0.262467 0.0085,-0.372534 -0.2794,0 -0.601133,0 -0.905934,0 -0.287866,0 -0.567266,0 -0.795867,0 -0.0085,0.118534 -0.0085,0.245534 -0.0085,0.372534 l 0.4064,0.01693 c 0.01693,0 0.03387,0.01693 0.0508,0.03387 0.296333,0.381 0.643467,0.8128 1.007534,1.278467 v 0.05927 c -0.440267,0.491067 -0.897467,0.999067 -1.210734,1.354667 -0.0254,0.01693 -0.0508,0.04233 -0.09313,0.04233 z m 5.15621,-4.978402 c -0.3048,0 -0.474134,0.211667 -0.474134,0.448734 0,0.237067 0.186267,0.440267 0.448734,0.440267 0.262467,0 0.448733,-0.186267 0.448733,-0.448734 0.0085,-0.186267 -0.1016,-0.440267 -0.423333,-0.440267 z m -0.2794,2.294468 v 2.616201 c 0,0.0254 -0.01693,0.04233 -0.03387,0.04233 l -0.567267,0.0254 c -0.0085,0.118534 -0.0085,0.245534 -0.0085,0.372534 0.287867,0 0.601134,-0.0085 0.889001,-0.0085 0.313267,0 0.668867,0 0.9398,0 0.0085,-0.118533 0.0085,-0.245533 0.0085,-0.372533 l -0.592667,-0.01693 c 0,-0.905933 0.01693,-2.286001 0.01693,-3.225801 0,-0.01693 0,-0.0254 -0.01693,-0.0254 -0.06773,0 -0.931334,0.169333 -1.286934,0.211667 0,0.110066 -0.0085,0.245533 -0.0085,0.3556 z m 2.243674,0 0.0085,2.624668 c 0,0.01693 -0.01693,0.03387 -0.0254,0.03387 l -0.508,0.0254 c -0.0085,0.118534 -0.0085,0.254 -0.0085,0.372534 0.254,0 0.550333,-0.0085 0.821267,-0.0085 0.321733,0 0.677333,0 0.956734,0 0.0085,-0.118533 0.0085,-0.254 0.0085,-0.372533 l -0.6096,-0.01693 c 0,-0.618067 0.0085,-1.6002 0.0254,-2.243667 0.3302,-0.262467 0.804334,-0.491067 1.1176,-0.491067 0.203201,0 0.414867,0.0254 0.575734,0.321733 0.110067,0.186267 0.110067,0.508 0.110067,0.855134 0,0.465667 0,1.0668 -0.0085,1.524001 0,0.01693 -0.0085,0.03387 -0.0254,0.03387 l -0.491067,0.0254 c -0.0085,0.118534 -0.0085,0.254 -0.0085,0.372534 0.237066,0 0.550333,-0.0085 0.8128,-0.0085 0.296333,0 0.626533,0 0.889,0 0.0085,-0.118533 0.0085,-0.254 0.0085,-0.372533 l -0.541867,-0.01693 c 0.0085,-0.635 0.0254,-1.439334 0.0254,-2.048934 0,-0.194733 -0.04233,-0.414867 -0.160867,-0.626534 -0.160866,-0.270933 -0.465667,-0.575733 -0.905933,-0.575733 -0.364067,0 -0.550334,0.03387 -1.388534,0.550333 l -0.04233,-0.0085 c -0.0254,-0.118534 -0.06773,-0.347134 -0.09313,-0.508 0,-0.01693 0,-0.0254 -0.01693,-0.0254 -0.05927,0 -0.829734,0.169333 -1.159934,0.2286 -0.0085,0.1016 -0.01693,0.2286 -0.01693,0.347133 z m 5.037672,2.082801 c -0.635,0.440267 -0.6604,0.4572 -0.6604,0.5334 0,0.364067 0.254,0.508 0.499533,0.575733 v 0.0508 c -0.2032,0.169334 -0.389466,0.287867 -0.7112,0.533401 -0.143933,0.127 -0.1778,0.211666 -0.1778,0.381 0,0.626533 0.601134,0.973667 1.617134,0.973667 0.474134,0 0.9398,-0.09313 1.295401,-0.237067 0.575733,-0.245533 0.872067,-0.677333 0.872067,-1.134534 0,-0.347133 -0.127,-0.499533 -0.389467,-0.668867 -0.2286,-0.160866 -0.618067,-0.194733 -1.227667,-0.2286 -0.838201,-0.0254 -1.100668,-0.0508 -1.100668,-0.2794 0,-0.110067 0.203201,-0.270933 0.406401,-0.440267 0.719667,0.04233 1.109133,-0.169333 1.397,-0.4572 0.262467,-0.270933 0.381,-0.6604 0.381,-0.9652 0,-0.321734 -0.1016,-0.618067 -0.3048,-0.804334 l 0.0085,-0.03387 c 0.169333,0 0.626533,0.0085 0.804334,0 0.0085,-0.135466 0.0085,-0.287866 0,-0.4318 -0.270934,0.01693 -0.745067,0.03387 -1.109134,0.0508 -0.05927,0 -0.110067,0 -0.186267,-0.01693 -0.09313,-0.03387 -0.321733,-0.0762 -0.575734,-0.0762 -1.016,0 -1.6256,0.694267 -1.6256,1.422401 0,0.6604 0.4064,1.024467 0.7874,1.202267 z m -0.118533,-1.278468 c 0,-0.668866 0.347133,-1.032933 0.8636,-1.032933 0.296334,0 0.474134,0.110066 0.592667,0.262467 0.135467,0.169333 0.2032,0.389466 0.2032,0.702733 0,0.694267 -0.381,1.049867 -0.846667,1.049867 -0.423333,0 -0.8128,-0.262467 -0.8128,-0.982134 z m 2.218267,3.098802 c 0,0.2794 -0.169333,0.499533 -0.465667,0.651933 -0.262466,0.143934 -0.651933,0.2032 -0.9652,0.2032 -0.474133,0 -1.058334,-0.169333 -1.058334,-0.601133 0,-0.2794 0.2794,-0.499534 0.660401,-0.829734 0.1778,0 0.4572,0.01693 0.880533,0.04233 0.719667,0.0508 0.948267,0.135466 0.948267,0.5334 z m 2.963328,-1.244601 c 0,0.127 0,0.270934 0,0.397934 0.3048,0 0.643466,-0.0085 0.999067,-0.0085 1.143,0 2.243667,0.0085 2.633134,0.0085 0.1016,-0.440267 0.2032,-0.889001 0.296333,-1.329267 -0.127,-0.0254 -0.287866,-0.05927 -0.440266,-0.08467 l -0.270934,0.770467 c -0.03387,0.09313 -0.0762,0.1524 -0.1524,0.169333 -0.143933,0.03387 -0.626533,0.05927 -1.312334,0.05927 -0.448733,0 -0.474133,-0.0254 -0.474133,-0.169334 l 0.0085,-2.032 c 0.499534,0 0.931334,0 1.312334,0.0085 0.143934,0 0.194734,0.04233 0.2032,0.160867 l 0.03387,0.448734 c 0.143933,0 0.296333,-0.0085 0.4318,-0.01693 0,-0.245533 0,-0.524933 0,-0.778933 0.0085,-0.279401 0.0085,-0.550334 0.01693,-0.812801 -0.127001,0 -0.296334,0 -0.431801,0 l -0.04233,0.4064 c -0.0085,0.110067 -0.0508,0.160867 -0.194733,0.169334 -0.457201,0.0085 -0.855134,0.0085 -1.329268,0.0085 l 0.0085,-2.082801 c 0.04233,0 0.169333,0 0.254,0 0.550334,0 1.117601,0.01693 1.337734,0.04233 0.135467,0.01693 0.1778,0.06773 0.194733,0.143933 l 0.135467,0.736601 c 0.160867,-0.0085 0.313267,-0.03387 0.448734,-0.0508 -0.01693,-0.4318 -0.04233,-0.863601 -0.0762,-1.286934 -0.186267,0 -0.381001,0 -0.736601,0.0085 -0.2032,0 -1.617134,0 -1.871134,0 -0.3302,0 -0.6858,0 -0.973667,0 -0.0085,0.127 -0.01693,0.262466 -0.01693,0.389466 l 0.626533,0.0254 v 4.648202 c 0,0.01693 -0.01693,0.0254 -0.0254,0.0254 z m 5.156205,-2.658534 0.0085,2.624668 c 0,0.01693 -0.01693,0.03387 -0.0254,0.03387 l -0.508001,0.0254 c -0.0085,0.118534 -0.0085,0.254 -0.0085,0.372534 0.254,0 0.550333,-0.0085 0.821267,-0.0085 0.321733,0 0.677333,0 0.956733,0 0.0085,-0.118533 0.0085,-0.254 0.0085,-0.372533 l -0.6096,-0.01693 c 0,-0.618067 0.0085,-1.6002 0.0254,-2.243667 0.3302,-0.262467 0.804334,-0.491067 1.1176,-0.491067 0.2032,0 0.414867,0.0254 0.575734,0.321733 0.110067,0.186267 0.110067,0.508 0.110067,0.855134 0,0.465667 0,1.0668 -0.0085,1.524001 0,0.01693 -0.0085,0.03387 -0.0254,0.03387 l -0.491067,0.0254 c -0.0085,0.118534 -0.0085,0.254 -0.0085,0.372534 0.237067,0 0.550334,-0.0085 0.812801,-0.0085 0.296333,0 0.626533,0 0.889,0 0.0085,-0.118533 0.0085,-0.254 0.0085,-0.372533 l -0.541867,-0.01693 c 0.0085,-0.635 0.0254,-1.439334 0.0254,-2.048934 0,-0.194733 -0.04233,-0.414867 -0.160867,-0.626534 -0.160867,-0.270933 -0.465667,-0.575733 -0.905934,-0.575733 -0.364066,0 -0.550333,0.03387 -1.388533,0.550333 l -0.04233,-0.0085 c -0.0254,-0.118534 -0.06773,-0.347134 -0.09313,-0.508 0,-0.01693 0,-0.0254 -0.01693,-0.0254 -0.05927,0 -0.829734,0.169333 -1.159934,0.2286 -0.0085,0.1016 -0.01693,0.2286 -0.01693,0.347133 z m 4.191001,1.490134 c 0,1.0668 0.7366,1.642534 1.557867,1.642534 0.364067,0 0.889001,-0.118534 1.337734,-0.347134 -0.01693,-0.118533 -0.0508,-0.254 -0.09313,-0.364067 -0.2794,0.110067 -0.7112,0.254001 -1.0414,0.254001 -0.262467,0 -0.567267,-0.0762 -0.762001,-0.321734 -0.220133,-0.254 -0.313267,-0.5588 -0.313267,-1.032934 0,-0.524933 0.194734,-0.897467 0.389467,-1.109133 0.1778,-0.2032 0.389467,-0.313267 0.719667,-0.313267 0.347134,0 0.6858,0.186267 0.762001,0.211667 0.1016,-0.06773 0.2794,-0.397934 0.2794,-0.524934 -0.127,-0.08467 -0.414867,-0.1778 -0.778934,-0.1778 -1.202267,0 -2.057401,0.8636 -2.057401,2.082801 z m 7.213605,-1.625601 c 0.0085,-0.118533 0.0085,-0.254 0.0085,-0.364067 -0.194733,0 -0.4318,0 -0.6604,0 -0.287867,0 -0.601134,0 -0.855134,0 -0.0085,0.110067 -0.0085,0.245534 -0.0085,0.372534 l 0.516466,0.01693 c 0.0254,0 0.0254,0.01693 0.0254,0.04233 -0.09313,0.304801 -0.211666,0.702734 -0.4318,1.295401 -0.1778,0.4826 -0.3048,0.795867 -0.465667,1.185334 h -0.0508 C 76.604644,25.706971 76.452244,25.283637 76.274444,24.741771 76.088177,24.199904 75.95271,23.80197 75.884977,23.57337 l 0.601134,-0.01693 c 0.0085,-0.127 0.0085,-0.262467 0.0085,-0.372534 -0.3302,0 -0.677333,0 -1.024467,0 -0.270933,0 -0.524933,0 -0.7366,0 0,0.110067 -0.0085,0.245534 -0.0085,0.364067 l 0.414867,0.0254 c 0.0254,0 0.04233,0.0085 0.04233,0.0254 0.135467,0.347134 0.287867,0.762 0.499534,1.312334 0.237067,0.651934 0.448733,1.159934 0.719667,1.845734 -0.135467,0.338667 -0.397934,0.728134 -0.635,1.007534 -0.211667,0.245533 -0.474134,0.4826 -0.762001,0.677333 0,0.1016 0.381001,0.372534 0.524934,0.372534 0.2286,-0.127 0.474133,-0.4318 0.7366,-0.829734 0.440267,-0.677333 1.066801,-2.057401 1.337734,-2.700868 0.313267,-0.770466 0.601134,-1.456267 0.694267,-1.710267 z m 0.228595,1.625601 c 0,1.0668 0.7366,1.642534 1.557867,1.642534 0.364067,0 0.889001,-0.118534 1.337734,-0.347134 -0.01693,-0.118533 -0.0508,-0.254 -0.09313,-0.364067 -0.2794,0.110067 -0.711201,0.254001 -1.041401,0.254001 -0.262467,0 -0.567267,-0.0762 -0.762,-0.321734 -0.220133,-0.254 -0.313267,-0.5588 -0.313267,-1.032934 0,-0.524933 0.194734,-0.897467 0.389467,-1.109133 0.1778,-0.2032 0.389467,-0.313267 0.719667,-0.313267 0.347133,0 0.6858,0.186267 0.762,0.211667 0.1016,-0.06773 0.2794,-0.397934 0.2794,-0.524934 -0.127,-0.08467 -0.414867,-0.1778 -0.778933,-0.1778 -1.202267,0 -2.057401,0.8636 -2.057401,2.082801 z m 3.242742,1.566334 c 0.2794,0 0.6096,-0.0085 0.9144,-0.0085 0.3556,0 0.702734,0 0.982134,0 0.0085,-0.118533 0.0085,-0.254 0.0085,-0.372533 l -0.6604,-0.01693 c 0,-1.684867 0.0254,-3.970868 0.03387,-5.503335 0,-0.0254 -0.0085,-0.03387 -0.0254,-0.03387 -0.06773,0 -0.948267,0.160867 -1.312334,0.194733 -0.0085,0.118534 -0.0085,0.245534 -0.0085,0.364067 l 0.677334,0.01693 c 0,1.481667 0,3.437468 -0.0085,4.927602 0,0.01693 -0.0085,0.03387 -0.0254,0.03387 l -0.567267,0.0254 c -0.0085,0.118534 -0.0085,0.254 -0.0085,0.372534 z m 4.080942,0.0762 c 0.448733,0 0.804333,-0.1016 1.126067,-0.3556 0.448733,-0.347134 0.728133,-0.905934 0.728133,-1.583268 0,-0.668867 -0.237066,-1.143 -0.6604,-1.464734 -0.3048,-0.2286 -0.651933,-0.321733 -1.049867,-0.321733 -0.4064,0 -0.8382,0.127 -1.159934,0.389467 -0.491067,0.397933 -0.719667,0.948267 -0.719667,1.5494 0,0.592667 0.194734,1.049867 0.567267,1.388534 0.2794,0.254 0.685801,0.397934 1.168401,0.397934 z m 0.0508,-0.372534 c -0.270934,0 -0.508,-0.1016 -0.677334,-0.2794 -0.270933,-0.2794 -0.389467,-0.651933 -0.389467,-1.202267 0,-0.516467 0.118534,-0.922867 0.389467,-1.202267 0.194734,-0.2032 0.474134,-0.287867 0.7112,-0.287867 0.287867,0 0.508001,0.08467 0.719667,0.313267 0.237067,0.262467 0.338667,0.651933 0.338667,1.126067 0,0.567267 -0.1016,0.948267 -0.381,1.253067 -0.194733,0.2032 -0.448733,0.2794 -0.7112,0.2794 z m 2.34526,2.209801 c 0.254001,0 0.567267,-0.0085 0.846667,-0.0085 0.372534,0 0.778934,0 1.100668,0 0.0085,-0.127 0.0085,-0.254 0.0085,-0.372533 l -0.7874,-0.01693 c 0,-0.465667 0.0085,-1.143001 0,-1.617134 l 0.03387,-0.01693 c 0.237066,0.118534 0.499533,0.194734 0.8636,0.194734 0.381,0 0.753534,-0.118534 0.9398,-0.245534 0.364067,-0.245533 0.533401,-0.508 0.668867,-0.821267 0.1524,-0.321733 0.2032,-0.635 0.2032,-1.0414 0.0085,-0.745067 -0.508,-1.617134 -1.363134,-1.617134 -0.3556,0 -0.4826,0.03387 -1.3208,0.465667 l -0.04233,-0.0085 c -0.01693,-0.135467 -0.04233,-0.3048 -0.06773,-0.448733 0,-0.0085 0,-0.01693 -0.01693,-0.01693 -0.05927,0 -0.8382,0.194734 -1.168401,0.254 -0.0085,0.1016 -0.0085,0.2286 -0.0085,0.338667 l 0.643467,0.0085 v 4.521202 c 0,0.03387 -0.01693,0.0508 -0.03387,0.0508 l -0.491067,0.03387 c -0.0085,0.118534 -0.0085,0.245534 -0.0085,0.364067 z m 3.183468,-3.733801 c 0,0.5588 -0.1524,0.9398 -0.4064,1.202267 -0.2032,0.2032 -0.4826,0.287867 -0.7366,0.287867 -0.414867,0 -0.855134,-0.245534 -0.855134,-0.431801 0,-0.592666 0.0085,-1.337733 0.01693,-1.972734 0.3556,-0.262466 0.753533,-0.397933 1.0668,-0.397933 0.321733,0 0.592667,0.1778 0.7366,0.4318 0.135467,0.270933 0.1778,0.567267 0.1778,0.880534 z m 1.413927,0.194733 c 0,0.982134 0.6096,1.701801 1.710267,1.701801 0.364067,0 0.872067,-0.127 1.3462,-0.3556 -0.01693,-0.118534 -0.0508,-0.262467 -0.09313,-0.381001 -0.296333,0.118534 -0.7366,0.270934 -1.126067,0.270934 -0.347134,0 -0.618067,-0.0508 -0.872067,-0.338667 -0.194733,-0.2286 -0.287867,-0.5842 -0.270934,-1.049867 0.524934,0 1.642534,-0.0085 2.142068,-0.0254 0.08467,-0.0085 0.245533,-0.2032 0.287867,-0.313267 0,-0.372533 -0.0762,-0.7874 -0.321734,-1.0922 -0.220133,-0.2794 -0.5588,-0.440267 -0.999067,-0.440267 -1.0922,0 -1.8034,0.9144 -1.8034,2.023534 z m 1.710267,-1.625601 c 0.237067,0 0.414867,0.1016 0.541867,0.254001 0.127,0.1524 0.2286,0.423333 0.2286,0.7112 0,0.05927 -0.04233,0.08467 -0.110067,0.09313 -0.4826,0.01693 -1.1684,0.0254 -1.651001,0.0254 0.0254,-0.4318 0.245534,-0.694267 0.355601,-0.821267 0.143933,-0.160867 0.338666,-0.262467 0.635,-0.262467 z m 4.842928,2.946402 c 0.0847,0.194733 0.16933,0.313266 0.253999,0.381 0.34714,0 0.85514,-0.09313 0.9906,-0.135467 0,-0.118533 0,-0.254 0,-0.364067 l -0.57573,0.0254 c -0.0677,0 -0.0931,-0.05927 -0.0931,-0.1778 0.008,-1.634067 0.0254,-3.826935 0.0254,-5.334002 0,-0.01693 -0.008,-0.0254 -0.0169,-0.0254 -0.0847,0 -0.922869,0.160867 -1.346198,0.211667 -0.0085,0.110066 -0.0085,0.237067 -0.0085,0.364067 l 0.702729,0.01693 c 0.008,0.618067 0.0169,1.1938 0.0169,1.837267 l -0.0339,0.0254 c -0.24553,-0.09313 -0.533396,-0.169333 -0.838196,-0.169333 -0.541867,0 -0.9652,0.211667 -1.261534,0.541867 -0.3556,0.397933 -0.567267,0.931334 -0.567267,1.490134 0,0.541867 0.169334,0.9652 0.499534,1.278467 0.254,0.270933 0.626534,0.414867 1.024467,0.414867 0.296334,0 0.474134,-0.0254 1.185336,-0.381 z m -0.0677,-0.516467 c 0,0.0508 0,0.08467 -0.0508,0.118533 -0.27093,0.194734 -0.584199,0.3302 -0.9398,0.3302 -0.262466,0 -0.541866,-0.110066 -0.719666,-0.347133 -0.194734,-0.262467 -0.270934,-0.5588 -0.270934,-0.982134 0,-0.4826 0.110067,-0.821267 0.3048,-1.100667 0.194734,-0.262467 0.499534,-0.4064 0.846667,-0.4064 0.296334,0 0.575733,0.08467 0.821263,0.220133 0.008,0.643467 0.008,1.413934 0.008,2.167468 z m 2.531529,-4.529669 c -0.3048,0 -0.47413,0.211667 -0.47413,0.448734 0,0.237067 0.18626,0.440267 0.44873,0.440267 0.26247,0 0.44873,-0.186267 0.44873,-0.448734 0.008,-0.186267 -0.1016,-0.440267 -0.42333,-0.440267 z m -0.2794,2.294468 v 2.616201 c 0,0.0254 -0.0169,0.04233 -0.0339,0.04233 l -0.56726,0.0254 c -0.008,0.118534 -0.008,0.245534 -0.008,0.372534 0.28787,0 0.60113,-0.0085 0.889,-0.0085 0.31327,0 0.66887,0 0.9398,0 0.008,-0.118533 0.008,-0.245533 0.008,-0.372533 l -0.59267,-0.01693 c 0,-0.905933 0.0169,-2.286001 0.0169,-3.225801 0,-0.01693 0,-0.0254 -0.0169,-0.0254 -0.0677,0 -0.93133,0.169333 -1.28693,0.211667 0,0.110066 -0.008,0.245533 -0.008,0.3556 z m 3.92008,2.751668 c 0.11007,0.169333 0.19474,0.3048 0.2794,0.381 0.381,0 0.8636,-0.0762 0.97367,-0.110067 0.008,-0.118533 0.008,-0.254 0,-0.3556 l -0.56727,0.01693 c -0.0508,0 -0.0762,-0.04233 -0.0762,-0.127 0.008,-0.3556 0.0169,-1.380067 0.0169,-1.778001 0,-0.9398 -0.508,-1.3716 -1.13454,-1.3716 -0.66886,0 -1.143,0.389467 -1.50706,0.745067 0.0931,0.110067 0.2032,0.2286 0.29633,0.321733 0.28787,-0.313266 0.6604,-0.5588 1.016,-0.5588 0.51647,0 0.72813,0.3556 0.70273,1.253067 -0.0847,0 -0.28786,0 -0.5842,-0.0085 -1.12606,0 -1.651,0.668867 -1.651,1.143 0,0.4826 0.54187,0.829734 0.9652,0.829734 0.29634,0 0.6096,-0.05927 1.22767,-0.381 z m -1.54093,-0.524934 c 0,-0.381 0.3048,-0.694267 1.05833,-0.694267 0.24554,0 0.42334,0.0085 0.46567,0.01693 0,0.228601 0,0.558801 0,0.719667 0,0.04233 0,0.05927 -0.0254,0.06773 -0.32173,0.2286 -0.69427,0.347133 -0.9398,0.347133 -0.3302,0 -0.5588,-0.186267 -0.5588,-0.4572 z"
         id="path2" /></g></g></svg>
